# xmcd CD database file
#
# Track frame offsets:
#	150
#	19113
#	33139
#	57414
#	72305
#	85620
#	101363
#	117264
#	131304
#	147206
#	164634
#	181667
#	194813
#	209710
#	222383
#	241534
#
# Disc length: 3449 seconds
#
# Revision: 0
# Processed by: cddbd v1.5.2PL0 Copyright (c) Steve Scherf et al.
# Submitted via: CDex 1.51
#
DISCID=e10d7710
DTITLE=Various Artist - RITMO SABROSO Vol.2
DYEAR=2014
DGENRE=Salsa
TTITLE0=Juan Soledad - Karibu - D.R.A
TTITLE1=Cabrita Que Tira Al Monte - Pedro Miguel y sus Maracaibos - J y S Alvares Huamanchumo
TTITLE2=Errante y Bohemio - Laba Sosseh - Rafael Lopez
TTITLE3=El Que Mando y Voy - Pluma y sus 8 Octavos - J Lopez Ramirez
TTITLE4=Ins Rock - Julian y su Combo - Julian Angulo
TTITLE5=Flores Negras - Los Demonios Del Salado - Carlos Amable Ortiz
TTITLE6=Flauta con Tumba - Orquesta Antillana - Rolando Lozano
TTITLE7=Negro con Salsa - Juan Piña con la Revelacion - Alfonso Cordoba Mosquera
TTITLE8=No Se Por Que - Los Caribbean Boys - Carmelo
TTITLE9=Yo Te Vi Partir - Los Astros - Mario Cavagnaro
TTITLE10=El Profesor - Los Graduados 79 - D.R.A
TTITLE11=Piano Guaguanco - Facundo rivero - Facundo Rivero
TTITLE12=La Traidora - Los Pacheco - Wally Cortada
TTITLE13=Me Llaman Loco - Oliva Brass - Tomas Oliva
TTITLE14=Agitando - Kako y Maelo Jr - Elliot Romero
TTITLE15=Mala mujer - Sonora Matancera - Juan Carmona Jose A Morillas
EXTD=YEAR: 2014
EXTT0=
EXTT1=
EXTT2=
EXTT3=
EXTT4=
EXTT5=
EXTT6=
EXTT7=
EXTT8=
EXTT9=
EXTT10=
EXTT11=
EXTT12=
EXTT13=
EXTT14=
EXTT15=
PLAYORDER=
